<svg width="63" height="62" viewBox="0 0 63 62" fill="none" xmlns="http://www.w3.org/2000/svg">
<rect x="0.421875" width="62" height="62" rx="31" fill="#9E1F66"/>
<path d="M38.803 19.1904H24.0411C19.6125 19.1904 16.6602 21.4047 16.6602 26.5714V36.9047C16.6602 42.0714 19.6125 44.2857 24.0411 44.2857H38.803C43.2316 44.2857 46.184 42.0714 46.184 36.9047V26.5714C46.184 21.4047 43.2316 19.1904 38.803 19.1904ZM39.4968 28.1804L34.8763 31.8709C33.9021 32.6533 32.6621 33.0371 31.4221 33.0371C30.1821 33.0371 28.9273 32.6533 27.9678 31.8709L23.3473 28.1804C22.8749 27.7966 22.8011 27.088 23.1702 26.6157C23.554 26.1433 24.2478 26.0547 24.7202 26.4385L29.3406 30.129C30.4625 31.0295 32.3668 31.0295 33.4887 30.129L38.1092 26.4385C38.5816 26.0547 39.2902 26.1285 39.6592 26.6157C40.043 27.088 39.9692 27.7966 39.4968 28.1804Z" fill="white"/>
</svg>
