<svg width="63" height="62" viewBox="0 0 63 62" fill="none" xmlns="http://www.w3.org/2000/svg">
<rect x="0.421875" width="62" height="62" rx="31" fill="#9E1F66"/>
<path d="M42.8785 26.8811C41.394 20.5602 35.6963 17.7144 30.6914 17.7144C30.6914 17.7144 30.6914 17.7144 30.6773 17.7144C25.6865 17.7144 19.9747 20.5465 18.4901 26.8675C16.836 33.9272 21.3036 39.9062 25.3472 43.6687C26.8458 45.0642 28.7686 45.762 30.6914 45.762C32.6142 45.762 34.537 45.0642 36.0215 43.6687C40.065 39.9062 44.5327 33.9409 42.8785 26.8811ZM30.6914 33.7357C28.2314 33.7357 26.2379 31.8066 26.2379 29.4259C26.2379 27.0453 28.2314 25.1162 30.6914 25.1162C33.1515 25.1162 35.1449 27.0453 35.1449 29.4259C35.1449 31.8066 33.1515 33.7357 30.6914 33.7357Z" fill="white"/>
</svg>
