<svg width="62" height="62" viewBox="0 0 62 62" fill="none" xmlns="http://www.w3.org/2000/svg">
<rect width="62" height="62" rx="31" fill="#9E1F66"/>
<path d="M29.8328 34.6316L27.5568 36.9075C27.0771 37.3873 26.3143 37.3873 25.8222 36.9199C25.6869 36.7845 25.5516 36.6615 25.4163 36.5262C24.1491 35.2467 23.005 33.9058 21.9839 32.5033C20.9751 31.1009 20.1632 29.6984 19.5727 28.3083C18.9945 26.9058 18.6992 25.5649 18.6992 24.2854C18.6992 23.4489 18.8468 22.6492 19.1421 21.9111C19.4374 21.1606 19.9048 20.4717 20.5569 19.8566C21.3442 19.0816 22.2054 18.7002 23.1157 18.7002C23.4602 18.7002 23.8047 18.774 24.1122 18.9216C24.4321 19.0693 24.715 19.2907 24.9365 19.6106L27.7906 23.6334C28.012 23.941 28.172 24.2239 28.2827 24.4946C28.3934 24.7529 28.4549 25.0113 28.4549 25.245C28.4549 25.5403 28.3688 25.8355 28.1966 26.1185C28.0366 26.4014 27.8029 26.6967 27.5076 26.9919L26.5727 27.9638C26.4373 28.0991 26.3758 28.2591 26.3758 28.4559C26.3758 28.5543 26.3881 28.6404 26.4127 28.7388C26.4496 28.8373 26.4866 28.9111 26.5112 28.9849C26.7326 29.3909 27.114 29.9199 27.6553 30.5596C28.2089 31.1993 28.7994 31.8513 29.4391 32.5033C29.5621 32.6264 29.6974 32.7494 29.8205 32.8724C30.3126 33.3522 30.3249 34.1395 29.8328 34.6316Z" fill="white"/>
<path d="M43.2667 38.7879C43.2667 39.1324 43.2052 39.4892 43.0822 39.8336C43.0453 39.932 43.0084 40.0305 42.9592 40.1289C42.75 40.5718 42.4794 40.99 42.1226 41.3837C41.5198 42.048 40.8555 42.5278 40.105 42.8354C40.0927 42.8354 40.0804 42.8477 40.0681 42.8477C39.3423 43.1429 38.555 43.3029 37.7061 43.3029C36.4513 43.3029 35.1103 43.0076 33.6956 42.4048C32.2808 41.802 30.866 40.99 29.4636 39.9689C28.9838 39.6122 28.504 39.2554 28.0488 38.874L32.0717 34.8512C32.4161 35.1095 32.7237 35.3064 32.982 35.4417C33.0435 35.4663 33.1174 35.5032 33.2035 35.5401C33.3019 35.577 33.4003 35.5893 33.511 35.5893C33.7202 35.5893 33.8801 35.5155 34.0154 35.3802L34.9504 34.4575C35.258 34.15 35.5532 33.9162 35.8362 33.7686C36.1191 33.5964 36.4021 33.5103 36.7096 33.5103C36.9434 33.5103 37.1894 33.5595 37.4601 33.6702C37.7307 33.7809 38.0137 33.9408 38.3212 34.15L42.3933 37.041C42.7131 37.2624 42.9346 37.5208 43.0699 37.8283C43.1929 38.1359 43.2667 38.4435 43.2667 38.7879Z" fill="white"/>
</svg>
