<svg width="16" height="16" viewBox="0 0 16 16" fill="none" xmlns="http://www.w3.org/2000/svg">
<g id="search-normal">
<path id="Vector" d="M7.66585 14.4999C3.89919 14.4999 0.83252 11.4333 0.83252 7.66662C0.83252 3.89995 3.89919 0.833282 7.66585 0.833282C11.4325 0.833282 14.4992 3.89995 14.4992 7.66662C14.4992 11.4333 11.4325 14.4999 7.66585 14.4999ZM7.66585 1.83328C4.44585 1.83328 1.83252 4.45328 1.83252 7.66662C1.83252 10.8799 4.44585 13.4999 7.66585 13.4999C10.8859 13.4999 13.4992 10.8799 13.4992 7.66662C13.4992 4.45328 10.8859 1.83328 7.66585 1.83328Z" fill="#262626"/>
<path id="Vector_2" d="M14.6664 15.1666C14.5397 15.1666 14.4131 15.12 14.3131 15.02L12.9797 13.6866C12.7864 13.4933 12.7864 13.1733 12.9797 12.98C13.1731 12.7866 13.4931 12.7866 13.6864 12.98L15.0197 14.3133C15.2131 14.5066 15.2131 14.8266 15.0197 15.02C14.9197 15.12 14.7931 15.1666 14.6664 15.1666Z" fill="#262626"/>
</g>
</svg>
