<svg width="180" height="180" viewBox="0 0 180 180" fill="none" xmlns="http://www.w3.org/2000/svg">
<path d="M101.107 72.8637C95.3994 63.1548 98.6434 50.6576 108.352 44.9505C118.061 39.2434 130.558 42.4874 136.266 52.1963L168.303 106.699C174.011 116.408 170.767 128.905 161.058 134.612C151.349 140.319 138.852 137.075 133.144 127.366L101.107 72.8637Z" fill="#44622D"/>
<path d="M41.4549 72.8637C35.7478 63.1548 38.9918 50.6576 48.7007 44.9505C58.4096 39.2434 70.9068 42.4874 76.6139 52.1963L108.652 106.699C114.359 116.408 111.115 128.905 101.406 134.612C91.6971 140.319 79.2 137.075 73.4928 127.366L41.4549 72.8637Z" fill="#44622D"/>
<path d="M50.4612 117.075C50.4612 128.557 41.1533 137.865 29.6713 137.865C18.1894 137.865 8.88147 128.557 8.88147 117.075C8.88147 105.593 18.1894 96.2855 29.6713 96.2855C41.1533 96.2855 50.4612 105.593 50.4612 117.075Z" fill="#8DA73C"/>
</svg>
