<svg width="512" height="512" viewBox="0 0 512 512" fill="none" xmlns="http://www.w3.org/2000/svg">
<path d="M287.592 207.257C271.358 179.64 280.586 144.093 308.202 127.859C335.819 111.626 371.366 120.853 387.6 148.469L478.73 303.498C494.963 331.115 485.736 366.662 458.119 382.896C430.503 399.13 394.956 389.902 378.722 362.286L287.592 207.257Z" fill="#44622D"/>
<path d="M117.916 207.257C101.683 179.64 110.91 144.093 138.526 127.859C166.143 111.626 201.69 120.853 217.924 148.469L309.054 303.498C325.288 331.115 316.06 366.662 288.444 382.896C260.827 399.13 225.28 389.902 209.046 362.286L117.916 207.257Z" fill="#44622D"/>
<path d="M143.534 333.014C143.534 365.674 117.058 392.15 84.3986 392.15C51.7389 392.15 25.2629 365.674 25.2629 333.014C25.2629 300.355 51.7389 273.879 84.3986 273.879C117.058 273.879 143.534 300.355 143.534 333.014Z" fill="#8DA73C"/>
</svg>
