<svg width="32" height="32" viewBox="0 0 32 32" fill="none" xmlns="http://www.w3.org/2000/svg">
<path d="M17.9745 12.9535C16.9599 11.2275 17.5367 9.0058 19.2627 7.9912C20.9887 6.9766 23.2104 7.55332 24.225 9.27934L29.9207 18.9686C30.9353 20.6947 30.3585 22.9164 28.6325 23.931C26.9065 24.9456 24.6848 24.3689 23.6702 22.6429L17.9745 12.9535Z" fill="#44622D"/>
<path d="M7.3698 12.9535C6.3552 11.2275 6.93192 9.0058 8.65794 7.9912C10.384 6.9766 12.6057 7.55332 13.6203 9.27934L19.3159 18.9686C20.3305 20.6947 19.7538 22.9164 18.0278 23.931C16.3018 24.9456 14.08 24.3689 13.0654 22.6429L7.3698 12.9535Z" fill="#44622D"/>
<path d="M8.97093 20.8134C8.97093 22.8546 7.31619 24.5094 5.27496 24.5094C3.23372 24.5094 1.57898 22.8546 1.57898 20.8134C1.57898 18.7722 3.23372 17.1174 5.27496 17.1174C7.31619 17.1174 8.97093 18.7722 8.97093 20.8134Z" fill="#8DA73C"/>
</svg>
