<svg width="16" height="16" viewBox="0 0 16 16" fill="none" xmlns="http://www.w3.org/2000/svg">
<path d="M8.98721 6.47677C8.47991 5.61376 8.76827 4.5029 9.63128 3.9956C10.4943 3.4883 11.6052 3.77666 12.1125 4.63967L14.9603 9.48432C15.4676 10.3473 15.1792 11.4582 14.3162 11.9655C13.4532 12.4728 12.3423 12.1844 11.835 11.3214L8.98721 6.47677Z" fill="#44622D"/>
<path d="M3.68484 6.47677C3.17754 5.61376 3.4659 4.5029 4.32891 3.9956C5.19192 3.4883 6.30278 3.77666 6.81008 4.63967L9.6579 9.48432C10.1652 10.3473 9.87684 11.4582 9.01383 11.9655C8.15081 12.4728 7.03995 12.1844 6.53265 11.3214L3.68484 6.47677Z" fill="#44622D"/>
<path d="M4.4854 10.4067C4.4854 11.4273 3.65803 12.2547 2.63742 12.2547C1.6168 12.2547 0.789429 11.4273 0.789429 10.4067C0.789429 9.38609 1.6168 8.55872 2.63742 8.55872C3.65803 8.55872 4.4854 9.38609 4.4854 10.4067Z" fill="#8DA73C"/>
</svg>
